<svg xmlns="http://www.w3.org/2000/svg" width="300.159" height="589.076" viewBox="0 0 300.159 589.076" preserveAspectRatio="xMaxYMid meet">
  <path id="Union_9" data-name="Union 9" 
  d="M-10940.1,546.975c-.085-.476-.4-1.963-.435-2.469a12.021,12.021,0,0,1,10.223-12.4,11.867,11.867,0,0,1,13.674,8.145c.135.445.523,1.968.613,2.481a12.223,12.223,0,0,1-9.908,14.159,12.427,12.427,0,0,1-2.143.188A12.231,12.231,0,0,1-10940.1,546.975Zm5.5-21.133c-.021-.12-.1-.487-.105-.608a2.962,2.962,0,0,1,2.52-3.063,2.932,2.932,0,0,1,3.379,2.01c.031.109.126.487.148.613a3.014,3.014,0,0,1-2.449,3.491,2.912,2.912,0,0,1-.535.05A3.012,3.012,0,0,1-10934.608,525.841Zm-19.341-44.537c-.831-.6-3.547-2.425-4.343-3.153-9.617-8.839-10.611-23.5-2.707-34.376,4.684-6.448,19.344-7.862,17.4-17.356-.652-1.672-1.325-1.932-3.276-3.774a.808.808,0,0,1-.252-.728c-23.773-19.98-10.558-55.333-50.509-75.234-23.7-11.8-44.464-8.318-64-4.833-12.6,2.251-24.689,4.5-36.723,2.649-4.48-.686-6.964-3.533-11.7-3.416a.292.292,0,0,1-.162.076c-1.7.361-4.67,1.523-5.568,2.45-.546.7-1.568,2.884-2.1,3.648a12.538,12.538,0,0,1-17.454,3.074,12.526,12.526,0,0,1-3.077-17.451c.435-.627,2.145-3.424,2.3-5.266a15.648,15.648,0,0,0-.865-5.236c-12.717-12.14-16.97-23.328-18.313-35.281-.759-6.773-.872-19.434-.507-22.147h-.015s.264-5.012.605-7.854c.68-5.381,1.948-13.84,6.3-17.757,12.546-12.045,53.208-7.476,74.318-39,24.255-36.21,1.812-64.925,23.418-89.684,1-2.472,1.5-3.066,1.38-4.944-2.458-10.292-17.613-4.928-25.218-9.144-12.843-7.117-18.613-22.077-13.179-35.255.448-1.089,2.3-4.147,2.839-5.126a28.635,28.635,0,0,1,28.6-14.531,5.967,5.967,0,0,1-.588-2.973c.017-.26.185-1.039.224-1.285a6.376,6.376,0,0,1,7.381-5.166,6.375,6.375,0,0,1,5.165,7.38c-.048.263-.252,1.058-.321,1.288a6.1,6.1,0,0,1-2.753,3.5q.6.3,1.2.63a28.619,28.619,0,0,1,11.157,38.906c-.849,6.132,7.812,8.108,11.832,8.665,14.576-4.777,27.218-1.985,41.376.806,15.3,3.015,32.383,6.031,55.616-.507a142.359,142.359,0,0,0,30.056-12.179,12.534,12.534,0,0,1,1.4-17.138,12.531,12.531,0,0,1,17.7.927c.364.406.958,1.282,1.512,2.061,14.221-12.1,19.954-22.908,19.954-22.908V432.176s-17.487,14.086-67.153.946a5.2,5.2,0,0,0-.126,5.759,26.222,26.222,0,0,1,5.8,36.627,26.177,26.177,0,0,1-21.231,10.807A26.1,26.1,0,0,1-10953.949,481.3Zm-174.115-68.279c-.118-.666-.571-2.769-.613-3.48-.513-8.57,5.714-15.965,14.425-17.5a16.745,16.745,0,0,1,19.282,11.493c.2.63.747,2.775.873,3.5a17.248,17.248,0,0,1-13.99,19.98,17.24,17.24,0,0,1-3.01.263A17.245,17.245,0,0,1-11128.064,413.025Zm30.728-40.225c-.042-.246-.21-1.025-.224-1.288a6.256,6.256,0,0,1,5.322-6.459,6.175,6.175,0,0,1,7.123,4.242c.072.23.274,1.025.319,1.291a6.362,6.362,0,0,1-5.166,7.375,6.6,6.6,0,0,1-1.117.1A6.364,6.364,0,0,1-11097.337,372.8Zm-37.279-188.386c-9.654-1.7-16.547-9.886-15.979-19.383.047-.787.549-3.116.677-3.855a19.1,19.1,0,0,1,22.128-15.491,19.1,19.1,0,0,1,15.494,22.127c-.141.8-.745,3.172-.964,3.875a18.387,18.387,0,0,1-17.817,13.042A20.413,20.413,0,0,1-11134.616,184.414Zm202.979-181.46a3.184,3.184,0,0,1-.557-.048,2.974,2.974,0,0,1-2.525-3.063c.011-.126.087-.493.109-.61a3.015,3.015,0,0,1,3.494-2.447,3.018,3.018,0,0,1,2.449,3.5c-.02.126-.117.5-.151.613a2.9,2.9,0,0,1-2.812,2.058Zm1.324-9.981a12.024,12.024,0,0,1-10.228-12.4c.031-.5.353-2,.439-2.467a12.217,12.217,0,0,1,14.156-9.914,12.224,12.224,0,0,1,9.917,14.162c-.093.512-.479,2.03-.616,2.478a11.763,11.763,0,0,1-11.4,8.346A13.108,13.108,0,0,1-10930.313-7.028Z" 
  transform="translate(11156 32)" 
  fill="#ffbe57"/>
</svg>
