<svg xmlns="http://www.w3.org/2000/svg" width="70.644" height="71.939" viewBox="0 0 70.644 71.939">
  <path id="Django" d="M-12402.081-2151.063a34.97,34.97,0,0,1-22.3-8.079,34.786,34.786,0,0,1-7.772-9.129,34.794,34.794,0,0,1-4.29-11.66c-.065-.371-.182-.961-.326-1.694-.36-1.823-.854-4.32-.917-5.358a32.643,32.643,0,0,1,1.646-12.427,33.253,33.253,0,0,1,5.957-10.642,36.186,36.186,0,0,1,21.616-12.378,37.446,37.446,0,0,1,6.477-.572,35.156,35.156,0,0,1,10.772,1.672,33.611,33.611,0,0,1,9.444,4.774,33.44,33.44,0,0,1,12.372,17.4c.392,1.267,1.5,5.622,1.76,7.086a34.722,34.722,0,0,1-.342,13.867,34.838,34.838,0,0,1-5.443,12.235,34.827,34.827,0,0,1-9.635,9.3,34.721,34.721,0,0,1-12.915,5.064A35.283,35.283,0,0,1-12402.081-2151.063Zm12.791-46.266-5.854.615,1.214,11.557c.529,5.043.486,7.022-.19,8.822-.627,1.726-1.771,2.919-4.224,4.4l5.707,2.013c2.391-1.526,3.566-2.836,4.336-4.835.818-2.041.929-4.312.437-9l-1.426-13.573Zm-16.551,1.375a11.325,11.325,0,0,0-1.209.071,10.265,10.265,0,0,0-7.051,3.455,9.776,9.776,0,0,0-1.989,7.449,9.236,9.236,0,0,0,2.9,6.281,10.135,10.135,0,0,0,6.817,2.123,20.69,20.69,0,0,0,2.151-.119,38.815,38.815,0,0,0,7.517-1.6l-2.847-27.1-5.856.615.939,8.928A8.834,8.834,0,0,0-12405.841-2195.954Zm15.6-10.384-5.854.618.631,6,5.856-.615-.634-6.006Zm-15.491,25a4.151,4.151,0,0,1-3.048-1.122,5.242,5.242,0,0,1-1.355-3.261c-.333-3.189,1.179-5.2,4.148-5.51a5.663,5.663,0,0,1,.725-.047,5.915,5.915,0,0,1,1.282.144l.99,9.39a13.655,13.655,0,0,1-2,.365A7.2,7.2,0,0,1-12405.73-2181.34Z" transform="translate(12437.743 2223.002)" fill="#ffbe57"/>
</svg>
