<svg xmlns="http://www.w3.org/2000/svg" width="109.846" height="111.861" viewBox="0 0 109.846 111.861">
  <path id="Express" d="M-12379.409-2108.091a53.832,53.832,0,0,1-18.605-3.308,54.416,54.416,0,0,1-16.064-9.256,54.129,54.129,0,0,1-12.085-14.2,54.137,54.137,0,0,1-6.671-18.133c-.1-.566-.281-1.482-.49-2.534-.568-2.868-1.347-6.8-1.442-8.427a50.757,50.757,0,0,1,2.56-19.322,51.673,51.673,0,0,1,9.261-16.546,54.547,54.547,0,0,1,14.71-12.391,57.53,57.53,0,0,1,18.9-6.857,58.165,58.165,0,0,1,10.072-.889,54.641,54.641,0,0,1,16.747,2.6,52.286,52.286,0,0,1,14.686,7.422,51.445,51.445,0,0,1,11.635,11.682,53.14,53.14,0,0,1,7.6,15.378c.613,1.989,2.342,8.771,2.74,11.024a53.982,53.982,0,0,1-.532,21.562,54.344,54.344,0,0,1-3.33,9.956,54.722,54.722,0,0,1-5.136,9.068,54.7,54.7,0,0,1-6.765,7.927,54.312,54.312,0,0,1-8.217,6.534,53.977,53.977,0,0,1-20.081,7.875A54.84,54.84,0,0,1-12379.409-2108.091Zm-16.956-76.344A17.727,17.727,0,0,0-12407-2180.8a18.771,18.771,0,0,0-6.726,10.012l-1.289,6.336c0,1.154-.006,2.319-.019,3.561.042.215.09.433.137.644l.008.038c.1.438.205.934.268,1.427.688,5.171,2.284,8.894,5.021,11.717a16.181,16.181,0,0,0,5.9,3.865,20.192,20.192,0,0,0,7.224,1.328,18.546,18.546,0,0,0,9.2-2.334,14.641,14.641,0,0,0,5.347-5.125,20.313,20.313,0,0,0,2.562-6.963,5.115,5.115,0,0,0-1.448-.261c-1.066,0-1.707.613-2.144,2.05a14.723,14.723,0,0,1-2.835,5.4,11.287,11.287,0,0,1-5.046,3.38,19.138,19.138,0,0,1-6.081,1.05,14.563,14.563,0,0,1-5.642-1.093,13.421,13.421,0,0,1-4.522-3.1c-3.143-3.263-4.758-8.127-4.548-13.7h32.653a27.825,27.825,0,0,0-1.192-10.112,16.986,16.986,0,0,0-5.753-8.113A16.805,16.805,0,0,0-12396.365-2184.435Zm22,1.026a9.976,9.976,0,0,0-1.878.21l14.663,19.095-15.749,21.143a6.266,6.266,0,0,0,1.65.243c1.515,0,2.666-.721,3.852-2.41l12.3-16.635,1.522,2.019,10.531,14.57c1.128,1.694,2.354,2.449,3.979,2.449a7.4,7.4,0,0,0,1.82-.255l-14.707-19.541c-.906-1.189-.92-1.955-.053-3.037l7.7-10.028,5.684-7.537a6.176,6.176,0,0,0-1.734-.278c-1.452,0-2.6.709-3.722,2.3l-11,14.672-10.924-14.75A4.4,4.4,0,0,0-12374.368-2183.409Zm-7.708,18.082h-29.507a20.051,20.051,0,0,1,1.329-6.584,15.658,15.658,0,0,1,3.21-5.093,14.04,14.04,0,0,1,4.772-3.287,15.508,15.508,0,0,1,6.016-1.166h.138a13.248,13.248,0,0,1,5.541,1.222,13.259,13.259,0,0,1,4.408,3.34,15.855,15.855,0,0,1,2.943,5.091,20.333,20.333,0,0,1,1.149,6.476Z" transform="translate(12434.86 2219.952)" fill="#ffbe57"/>
</svg>
