<svg xmlns="http://www.w3.org/2000/svg" width="131.423" height="133.836" viewBox="0 0 131.423 133.836">
  <path id="Gatsby" d="M-11064.04-1757.17h0a65.353,65.353,0,0,1-20.032-3.109,62.525,62.525,0,0,1-17.568-8.88,61.543,61.543,0,0,1-13.919-13.977,63.636,63.636,0,0,1-9.092-18.4c-.737-2.388-2.807-10.505-3.277-13.189a64.59,64.59,0,0,1,.636-25.8,64.937,64.937,0,0,1,3.983-11.911,65.42,65.42,0,0,1,6.145-10.85,65.468,65.468,0,0,1,8.093-9.485,65.019,65.019,0,0,1,9.831-7.818,64.581,64.581,0,0,1,24.024-9.423,65.621,65.621,0,0,1,11.36-1,64.411,64.411,0,0,1,22.261,3.959,65.087,65.087,0,0,1,19.222,11.074,64.763,64.763,0,0,1,14.46,16.986,64.766,64.766,0,0,1,7.981,21.694c.119.677.333,1.755.58,3l.011.052.011.055c.674,3.406,1.6,8.072,1.712,10a60.751,60.751,0,0,1-3.062,23.119,61.832,61.832,0,0,1-11.081,19.8,65.259,65.259,0,0,1-17.6,14.824,68.826,68.826,0,0,1-22.618,8.2A69.647,69.647,0,0,1-11064.04-1757.17Zm.677-104.558h0a38.647,38.647,0,0,0-6.694.59,37.773,37.773,0,0,0-13.963,5.437,37.089,37.089,0,0,0-10.364,9.966,37.09,37.09,0,0,0-5.821,13.146,37.77,37.77,0,0,0-.335,14.978,37.93,37.93,0,0,0,4.6,12.592,37.171,37.171,0,0,0,8.31,9.823,37.2,37.2,0,0,0,11.064,6.384,37.3,37.3,0,0,0,12.869,2.277,38.653,38.653,0,0,0,6.687-.59,37.771,37.771,0,0,0,13.96-5.438,37.086,37.086,0,0,0,10.364-9.967,37.093,37.093,0,0,0,5.822-13.148,37.762,37.762,0,0,0,.334-14.979,37.918,37.918,0,0,0-4.6-12.593,37.148,37.148,0,0,0-8.306-9.821,37.184,37.184,0,0,0-11.062-6.381,37.308,37.308,0,0,0-12.866-2.275Zm-.428,67.057h0a29.187,29.187,0,0,1-18.581-6.74,29.08,29.08,0,0,1-6.489-7.6,28.834,28.834,0,0,1-3.577-9.694l33.693,23.593A29.112,29.112,0,0,1-11063.791-1794.671Zm11.687-2.279-40.881-28.625a28.934,28.934,0,0,1,2.119-9.6,29.477,29.477,0,0,1,5.1-8.261,29.427,29.427,0,0,1,7.573-6.21,29.485,29.485,0,0,1,9.553-3.448,29.715,29.715,0,0,1,5.095-.442,29.571,29.571,0,0,1,11,2.113,29.57,29.57,0,0,1,9.5,6.1l-3.558,4.272a23.864,23.864,0,0,0-7.889-5.358,23.878,23.878,0,0,0-9.271-1.863,24.088,24.088,0,0,0-4.287.386,23.636,23.636,0,0,0-7.047,2.381,23.653,23.653,0,0,0-5.837,4.33,23.646,23.646,0,0,0-4.252,5.9,23.59,23.59,0,0,0-2.287,7.077l35.583,24.917a23.3,23.3,0,0,0,8.438-8.124,22.781,22.781,0,0,0,3.412-11.221l-12.55,2.213-.964-5.469,18.987-3.35a29.524,29.524,0,0,1,.028,10.158,29.426,29.426,0,0,1-3.245,9.241,29.445,29.445,0,0,1-6.019,7.614,28.959,28.959,0,0,1-8.3,5.277h0Z" transform="translate(11128.936 1891.006)" fill="#ffbe57"/>
</svg>
