<svg xmlns="http://www.w3.org/2000/svg" width="57.266" height="58.315" viewBox="0 0 57.266 58.315">
  <path id="JS" d="M-11106.463-1838.508h0a28.477,28.477,0,0,1-8.729-1.355,27.233,27.233,0,0,1-7.654-3.87,27.107,27.107,0,0,1-10.027-14.106c-.318-1.031-1.22-4.564-1.428-5.747a28.12,28.12,0,0,1,.277-11.241,28.216,28.216,0,0,1,4.413-9.918,28.238,28.238,0,0,1,7.81-7.539,28.138,28.138,0,0,1,10.469-4.1,28.593,28.593,0,0,1,4.952-.435,28.349,28.349,0,0,1,18.074,6.55,28.224,28.224,0,0,1,6.3,7.4,28.218,28.218,0,0,1,3.477,9.452c.05.281.137.722.238,1.233l.023.121,0,.027c.293,1.476.692,3.5.742,4.335a26.484,26.484,0,0,1-1.335,10.073,26.963,26.963,0,0,1-4.829,8.626,29.326,29.326,0,0,1-17.523,10.033A30.333,30.333,0,0,1-11106.463-1838.508Zm12.279-44.972-28.476,5.023,5.021,28.479,28.479-5.023-5.023-28.479Zm-13.278,29.362a4.533,4.533,0,0,1-1.619-.285,4.266,4.266,0,0,1-1.889-1.523l1.931-1.716c.017,0,.063.054.132.137l.02.023.039.047a2.322,2.322,0,0,0,1.165.839,2.131,2.131,0,0,0,.279.018,1.423,1.423,0,0,0,1.477-.915,6.931,6.931,0,0,0-.244-2.379l-.034-.184c-.041-.221-.084-.45-.124-.682q-.262-1.492-.52-2.976c-.242-1.394-.461-2.65-.686-3.914l2.669-.47.006.067q.146.829.294,1.655l.144.807,0,.019c.283,1.59.577,3.234.853,4.851.041.233.086.465.125.664a6.614,6.614,0,0,1,.1,3.388,3.4,3.4,0,0,1-1.854,2.054A5.875,5.875,0,0,1-11107.462-1854.118Zm9.961-1.908a5.141,5.141,0,0,1-2.943-.823c-.105-.086-.2-.162-.293-.235a3.632,3.632,0,0,1-.9-.911l1.951-1.632a3.165,3.165,0,0,0,2.361,1.219,2.484,2.484,0,0,0,1.983-.867,1.285,1.285,0,0,0,.055-1.218c-.292-.629-1.231-.844-2.32-1.092a10.68,10.68,0,0,1-2.432-.767,3.591,3.591,0,0,1-1.906-2.258,3.577,3.577,0,0,1,.294-2.93,3.91,3.91,0,0,1,1.819-1.548l.819-.254a6.483,6.483,0,0,1,1.272-.138,3.539,3.539,0,0,1,2.3.772,4.828,4.828,0,0,1,.858.8c-.761.685-.761.685-1.845,1.7a1.968,1.968,0,0,0-1.348-.864,1.815,1.815,0,0,0-.208-.012,1.327,1.327,0,0,0-1.452,1.113,1.433,1.433,0,0,0,.2.827,2.908,2.908,0,0,0,1.806.836c.165.039.371.087.564.139,2.425.519,3.671,1.351,4.165,2.781l-.07-.07a4.132,4.132,0,0,1,.257,1.973C-11092.755-1857.212-11095.208-1856.025-11097.5-1856.025Z" transform="translate(11134.74 1896.822)" fill="#ffbe57"/>
</svg>
