<svg xmlns="http://www.w3.org/2000/svg"  viewBox="0 0 440.284 480.502" preserveAspectRatio="xMidYMid meet">
  <path id="Union_7" data-name="Union 7" d="M-13963.8-2413.335c-9.651-1.7-16.546-9.887-15.979-19.384.046-.786.55-3.116.68-3.853a19.1,19.1,0,0,1,22.126-15.5,19.1,19.1,0,0,1,15.5,22.129c-.142.8-.747,3.176-.966,3.874a18.38,18.38,0,0,1-17.813,13.042A20.367,20.367,0,0,1-13963.8-2413.335Zm291.521-48.2a2.71,2.71,0,0,1-2.2-3.137c.021-.113.106-.451.138-.55a2.628,2.628,0,0,1,3.028-1.8,2.664,2.664,0,0,1,2.263,2.749c0,.109-.077.441-.1.546a2.707,2.707,0,0,1-2.661,2.238A2.715,2.715,0,0,1-13672.278-2461.531Zm-10.727-.98a8.216,8.216,0,0,1-6.986-8.477c.021-.342.24-1.361.3-1.685a8.357,8.357,0,0,1,9.68-6.775,8.352,8.352,0,0,1,6.775,9.676c-.063.349-.328,1.389-.424,1.7a8.036,8.036,0,0,1-7.79,5.7A8.922,8.922,0,0,1-13683-2462.511Zm-48.076-27.071c-13.035-3.694-25.218-7.392-37.713-6.542-16.444,1.121-52.828,9.852-69.72,6.874a204.471,204.471,0,0,1-93.167-41.968c-9.215-7.445-25.454-17.73-38.119-27.734q-.828-.556-1.6-1.141c-2.431-1.339-2.945-1.928-4.858-2.035-10.516,1.184-7.036,16.877-12.147,23.913-8.632,11.879-24.181,15.788-36.6,8.788-1.026-.582-3.836-2.788-4.745-3.448a28.62,28.62,0,0,1-6.33-39.976,28.621,28.621,0,0,1,39.976-6.334c4.135,1.1,6.856-2.559,8.484-6.215a30.073,30.073,0,0,0,1.453-4.086c-.154-1.236-.274-2.407-.378-3.492-1.29-13.927-12.034-21.682-15.09-32.458-5.541-19.535-6.723-41.777-5.46-62.909.476-8.026,11.071-30.6,12.4-38.133a194.891,194.891,0,0,1,17.346-52.927c10.212-20.519-26.8-52.119,9.147-78.807,19.6-15.517,42.627-14.949,63.262-14.385,12.891.356,24.851.712,34.46-2.855a194.06,194.06,0,0,1,101.684-9.2,194.78,194.78,0,0,1,55.362,18.591c1.928.99,2.792,2.682,4.628,2.742a.479.479,0,0,1,.1.016c1.144-.033,2.138-.03,3.044-.023a21.007,21.007,0,0,0,7.061-.779c2.626-.962,6.038-4.54,6.775-5.421a18.91,18.91,0,0,1,26.638-2.33,18.9,18.9,0,0,1,2.33,26.638c-.9,1.072-3.687,3.409-4.5,4.484a8.782,8.782,0,0,0-1.566,5.464,1.457,1.457,0,0,1,.051.169c.974,3.958,5.446,5.953,7.558,8.188,41.234,43.632,61.827,105.025,50.7,168.16-1.441,8.167-7.628,32.419-9.834,39.574-5.344,17.325-15.4,22.767-24.7,37.146-15.118,23.374,29.979,62.462-14.981,92.787a89.005,89.005,0,0,1-32.746,6.339C-13706.879-2482.913-13719.329-2486.248-13731.081-2489.583Zm-297.391-29.81a2.967,2.967,0,0,1-2.524-3.063c.008-.123.085-.493.106-.61a3.012,3.012,0,0,1,3.5-2.446,3.011,3.011,0,0,1,2.446,3.493c-.021.127-.116.5-.151.613a2.9,2.9,0,0,1-2.813,2.062A3.2,3.2,0,0,1-14028.472-2519.393Zm19.63-311.667a12.018,12.018,0,0,1-10.226-12.4c.028-.5.353-2,.434-2.468a12.221,12.221,0,0,1,14.159-9.912,12.221,12.221,0,0,1,9.916,14.16c-.092.511-.476,2.03-.617,2.478a11.762,11.762,0,0,1-11.4,8.346A13.071,13.071,0,0,1-14008.842-2831.06Zm-16.115-9.334a2.964,2.964,0,0,1-2.524-3.063c.007-.124.085-.494.105-.61a3.019,3.019,0,0,1,3.5-2.446,3.019,3.019,0,0,1,2.45,3.5c-.025.127-.12.5-.155.61a2.9,2.9,0,0,1-2.813,2.062A3.2,3.2,0,0,1-14024.957-2840.394Zm416.155-40.121a6.26,6.26,0,0,1-5.326-6.461c.015-.264.184-1.04.226-1.287a6.372,6.372,0,0,1,7.378-5.164,6.369,6.369,0,0,1,5.164,7.378c-.046.264-.247,1.058-.321,1.29a6.127,6.127,0,0,1-5.938,4.348A6.792,6.792,0,0,1-13608.8-2880.514Z" transform="translate(14041.547 2893.524)" fill="#ffbe57"/>
</svg>
