<svg xmlns="http://www.w3.org/2000/svg" width="1842.421" height="556.055" viewBox="0 0 1842.421 556.055" preserveAspectRatio="xMinYMid meet">
  <path id="Union_3" data-name="Union 3" d="M-12482.243-561.99c-.189-1.066-.919-4.437-.986-5.576-.816-13.729,9.152-25.557,23.105-28.019,13.863-2.446,26.809,5.2,30.88,18.4.313,1.012,1.19,4.449,1.4,5.6a27.617,27.617,0,0,1-22.4,31.994,28.205,28.205,0,0,1-4.827.426A27.632,27.632,0,0,1-12482.243-561.99Zm-262.295-99.872a2.925,2.925,0,0,1,.666-3.87c.09-.074.406-.294.519-.362a3.017,3.017,0,0,1,4.142,1.031,3.013,3.013,0,0,1-1.037,4.139c-.1.061-.412.272-.528.32a2.805,2.805,0,0,1-1.168.253A3.044,3.044,0,0,1-12744.538-661.862Zm-8.252-9.024a7.211,7.211,0,0,1,1.642-9.529c.221-.173,1-.72,1.274-.883a7.419,7.419,0,0,1,10.186,2.538,7.419,7.419,0,0,1-2.538,10.192c-.247.15-1.024.656-1.3.784a7.008,7.008,0,0,1-2.885.624A7.489,7.489,0,0,1-12752.79-670.885Zm1757.049-137.2c-.084-.474-.407-1.965-.436-2.468a12.021,12.021,0,0,1,10.224-12.4,11.864,11.864,0,0,1,13.669,8.147c.138.448.527,1.969.617,2.481a12.223,12.223,0,0,1-9.917,14.158,12.3,12.3,0,0,1-2.137.188A12.221,12.221,0,0,1-10995.741-808.088Zm5.492-21.13c-.022-.118-.1-.487-.108-.611a2.972,2.972,0,0,1,2.525-3.063,2.931,2.931,0,0,1,3.374,2.013c.035.109.131.487.153.611a3.017,3.017,0,0,1-2.448,3.5,3.044,3.044,0,0,1-.53.047A3.016,3.016,0,0,1-10990.249-829.217Zm-19.337-44.536c-.832-.605-3.554-2.426-4.347-3.159-9.616-8.835-10.615-23.492-2.708-34.376,4.683-6.444,19.344-7.859,17.4-17.353-.647-1.671-1.322-1.927-3.275-3.774a.817.817,0,0,1-.252-.727c-23.775-19.981-10.558-55.331-50.51-75.23-23.7-11.809-44.465-8.323-64-4.837-12.6,2.247-24.683,4.494-36.719,2.647-4.48-.685-6.967-3.532-11.7-3.417a.293.293,0,0,1-.163.075c-1.7.362-4.667,1.524-5.566,2.449-.547.7-1.568,2.887-2.1,3.649a12.531,12.531,0,0,1-17.452,3.076,12.531,12.531,0,0,1-3.076-17.452c.436-.624,2.142-3.422,2.308-5.269a15.676,15.676,0,0,0-.872-5.235c-12.716-12.14-16.971-23.33-18.312-35.28-.765-6.825-.87-19.632-.5-22.209s1.655-1.623,1.655-1.623l298.3-3.419v172.333s-17.491,14.082-67.157.946a5.2,5.2,0,0,0-.128,5.756,26.223,26.223,0,0,1,5.8,36.626,26.186,26.186,0,0,1-21.233,10.81A26.1,26.1,0,0,1-11009.586-873.753Zm-1702.392-19.4c-.045-.246-.211-1.024-.224-1.284a6.26,6.26,0,0,1,5.326-6.466,6.181,6.181,0,0,1,7.116,4.245c.07.234.275,1.024.326,1.293a6.372,6.372,0,0,1-5.166,7.375,6.333,6.333,0,0,1-1.117.1A6.368,6.368,0,0,1-12711.978-893.151Zm-7.266-36.059c-.189-1.066-.916-4.437-.983-5.573-.819-13.732,9.146-25.567,23.1-28.028,13.864-2.442,26.815,5.214,30.884,18.4.311,1.018,1.185,4.449,1.39,5.6a27.621,27.621,0,0,1-22.4,31.994,27.9,27.9,0,0,1-4.827.423A27.621,27.621,0,0,1-12719.243-929.211Zm1535.538-12.823c-.119-.666-.573-2.769-.615-3.479-.512-8.572,5.711-15.964,14.428-17.5a16.739,16.739,0,0,1,19.282,11.492c.2.634.743,2.775.871,3.5a17.248,17.248,0,0,1-13.988,19.978,17.378,17.378,0,0,1-3.017.265A17.246,17.246,0,0,1-11183.705-942.034Zm30.727-40.23c-.042-.246-.212-1.021-.228-1.284a6.263,6.263,0,0,1,5.326-6.463,6.181,6.181,0,0,1,7.122,4.245c.071.234.275,1.024.32,1.29a6.37,6.37,0,0,1-5.163,7.378,6.413,6.413,0,0,1-1.113.1A6.371,6.371,0,0,1-11152.979-982.265Z" transform="translate(12753.899 1095.216)" fill="#ffbe57"/>
</svg>
