<svg xmlns="http://www.w3.org/2000/svg" width="89.416" height="91.057" viewBox="0 0 89.416 91.057">
  <path id="React" d="M-11088.068-1803.244a44.481,44.481,0,0,1-13.633-2.116,42.561,42.561,0,0,1-11.954-6.042,42.322,42.322,0,0,1-15.658-22.028c-.5-1.624-1.908-7.146-2.228-8.971a43.924,43.924,0,0,1,.433-17.553,44.057,44.057,0,0,1,6.891-15.487,44.091,44.091,0,0,1,12.2-11.772,43.942,43.942,0,0,1,16.347-6.41,44.642,44.642,0,0,1,7.729-.679,43.831,43.831,0,0,1,15.146,2.693,44.275,44.275,0,0,1,13.077,7.534,44.043,44.043,0,0,1,9.837,11.556,44.048,44.048,0,0,1,5.431,14.76c.083.469.232,1.225.4,2.092.46,2.326,1.09,5.512,1.169,6.832a41.338,41.338,0,0,1-2.083,15.729,42.067,42.067,0,0,1-7.539,13.469,44.43,44.43,0,0,1-11.974,10.086,46.85,46.85,0,0,1-15.39,5.582A47.375,47.375,0,0,1-11088.068-1803.244Zm.436-27.486h0c.483.473,1,.931,1.452,1.324,3.4,2.925,6.731,4.536,9.379,4.536a4.939,4.939,0,0,0,2.5-.623c1.4-.813,2.386-2.457,2.84-4.755a21.456,21.456,0,0,0-.235-8.12c-.1-.476-.2-.962-.318-1.442.278-.078.555-.166.821-.252l.008,0,.175-.056a25.055,25.055,0,0,0,7.627-3.859c1.965-1.566,3-3.25,3-4.869,0-1.544-.979-3.153-2.833-4.652a24.032,24.032,0,0,0-7.189-3.724c-.6-.2-1.167-.379-1.732-.545.079-.322.15-.648.22-.963l.01-.046.039-.179c1.335-6.47.39-11.517-2.468-13.172a4.878,4.878,0,0,0-2.46-.607c-2.685,0-6.084,1.673-9.571,4.71-.446.384-.895.8-1.333,1.227-.288-.274-.586-.551-.889-.822a25.306,25.306,0,0,0-5.363-3.744,10.852,10.852,0,0,0-4.754-1.319,4.964,4.964,0,0,0-2.532.631c-1.358.788-2.3,2.372-2.72,4.583a21.473,21.473,0,0,0,.264,7.884c.119.609.248,1.192.394,1.783-.666.188-1.334.4-1.986.632a23.138,23.138,0,0,0-7.037,3.692c-1.8,1.487-2.759,3.089-2.759,4.631,0,1.6,1.01,3.271,2.92,4.842a23.942,23.942,0,0,0,7.367,3.863c.461.155.952.319,1.453.461-.155.625-.3,1.254-.427,1.923a20.766,20.766,0,0,0-.193,7.741,6.384,6.384,0,0,0,2.747,4.5,5.067,5.067,0,0,0,2.567.632c2.795,0,6.4-1.753,9.889-4.81.409-.36.776-.7,1.12-1.036Zm10.818,3.571h0c-2.017,0-4.953-1.487-7.855-3.976-.459-.391-.937-.837-1.358-1.23a52.84,52.84,0,0,0,4.509-5.726,52.5,52.5,0,0,0,7.285-1.121c.092.366.184.779.291,1.3a19.46,19.46,0,0,1,.266,7.085,4.757,4.757,0,0,1-1.764,3.345A2.719,2.719,0,0,1-11076.814-1827.159Zm-21.52-.039a4.671,4.671,0,0,1-1.722-.327c-1.783-1.029-2.363-4.979-1.444-9.829.125-.64.255-1.224.4-1.783a53.927,53.927,0,0,0,7.255,1.045,55.956,55.956,0,0,0,4.614,5.707c-.386.373-.722.683-1.025.95a19.538,19.538,0,0,1-6.025,3.773A4.792,4.792,0,0,1-11098.334-1827.2Zm10.692-6.833h0c-1.091-1.175-2.18-2.48-3.238-3.878.968.042,2.028.064,3.153.064,1.2,0,2.263-.024,3.247-.073a46.331,46.331,0,0,1-3.16,3.887Zm-.086-6.112c-1.606,0-3.246-.05-4.872-.148-.917-1.338-1.8-2.74-2.627-4.167-.793-1.367-1.544-2.785-2.3-4.337.667-1.4,1.415-2.817,2.286-4.337.74-1.3,1.592-2.659,2.6-4.156,1.648-.121,3.3-.182,4.905-.182s3.269.061,4.9.182c.872,1.29,1.745,2.68,2.6,4.133.789,1.357,1.568,2.81,2.316,4.318-.712,1.466-1.488,2.932-2.306,4.357-.758,1.325-1.6,2.688-2.588,4.167C-11084.338-1840.2-11085.994-1840.142-11087.728-1840.142Zm0-13.557a4.9,4.9,0,0,0-4.894,4.894,4.9,4.9,0,0,0,4.894,4.894,4.9,4.9,0,0,0,4.894-4.894A4.9,4.9,0,0,0-11087.728-1853.7Zm-7.8,13.163h0a48.651,48.651,0,0,1-4.953-.8,49.834,49.834,0,0,1,1.741-4.754c.565,1.083,1.05,1.969,1.526,2.789.521.888,1.087,1.837,1.687,2.765Zm15.643-.053v0c.6-.932,1.175-1.905,1.656-2.734.491-.852.987-1.758,1.56-2.851a50.326,50.326,0,0,1,1.8,4.731,47.068,47.068,0,0,1-5.02.855Zm-22.83-1.313h0c-.417-.119-.851-.256-1.324-.416a22.234,22.234,0,0,1-6.732-3.334,4.828,4.828,0,0,1-2.009-3.194c0-.958.794-2.055,2.3-3.173a22.656,22.656,0,0,1,5.953-2.98c.665-.235,1.336-.437,1.847-.587a57.165,57.165,0,0,0,2.619,6.794,58.406,58.406,0,0,0-2.649,6.891Zm30.073-.129h0a54.211,54.211,0,0,0-2.725-6.815,54.294,54.294,0,0,0,2.619-6.721c.515.15,1.038.315,1.6.5,4.989,1.713,8.474,4.261,8.474,6.2,0,2.1-3.726,4.8-9.06,6.559-.268.087-.584.189-.908.279Zm-26.1-9.466v0c-.652-1.545-1.228-3.112-1.709-4.657,1.54-.341,3.179-.621,4.871-.833-.622.976-1.16,1.864-1.644,2.714-.571.989-1.067,1.9-1.517,2.776Zm22.051,0v0c-.377-.706-.946-1.764-1.548-2.8-.522-.908-1.072-1.813-1.635-2.691a48.863,48.863,0,0,1,4.9.855,46.716,46.716,0,0,1-1.718,4.635Zm2.328-6.85h0a55.14,55.14,0,0,0-7.187-1.132,54.282,54.282,0,0,0-4.553-5.673c.485-.459.872-.811,1.252-1.143,2.984-2.6,5.993-4.153,8.049-4.153a2.635,2.635,0,0,1,1.319.307c.894.513,1.528,1.823,1.786,3.688a21.449,21.449,0,0,1-.42,7.038c-.067.338-.145.7-.245,1.067Zm-26.707-.02h0c-.14-.546-.259-1.11-.374-1.656a20.411,20.411,0,0,1-.338-6.595c.25-1.742.848-2.966,1.682-3.447a2.747,2.747,0,0,1,1.393-.327c2.2,0,5.412,1.68,8.588,4.494.191.169.38.345.58.531l.018.016.146.136.067.063a55,55,0,0,0-4.584,5.673,56.462,56.462,0,0,0-7.176,1.112Zm10.168-1.325v0c1-1.312,2.073-2.6,3.2-3.824a47.692,47.692,0,0,1,3.16,3.824c-1.013-.047-2.081-.071-3.177-.071s-2.163.024-3.178.073Z" transform="translate(11132.224 1894.301)" fill="#ffbe57"/>
</svg>
