<svg xmlns="http://www.w3.org/2000/svg" width="505.687" height="596.818" viewBox="0 0 505.687 596.818">
  <path id="Projects_Skills_bottom_top_right" data-name="Projects/Skills_bottom_top_right" d="M-10725.658-1304.05c-20.529-4.365-32.709-28.887-28.347-49.413,2.58-12.132,1.957-21.39-1.65-26.941,0-.006,0-.012,0-.017-39.211-36.611-92.889-89.818-124.9-107.471-27.189-15-63.382-13.4-99.863-11.8-27.2,1.191-54.568,2.38-78.478-3.308-5.877-1.4-11.165-2.69-15.941-3.9-1.332,3-1.482,5.662-.276,9.389,2.234,6.9,3.917,13.016,4.933,16.556a28.161,28.161,0,0,1-9.076,29.429,6.461,6.461,0,0,1,1.792,2.863c.075.246.288,1.079.338,1.362a6.7,6.7,0,0,1-5.438,7.765,6.7,6.7,0,0,1-7.765-5.438c-.03-.163-.111-.551-.172-.884a28.154,28.154,0,0,1-33.809-19.576,28.154,28.154,0,0,1,19.3-34.826c2.756-.791,4.376-4.064,5.446-13.631-18.2-6.064-22.085-10.808-29.96-20.043-11.833-13.88-7.312-28.794-3.987-37s4.421-12.823,19.486-21.362c7.3-4.136,26.105-13.531,51.735-23.618,1.276-2.092,4.777-4.549,4.819-6.356-1.385-13.108-.646-22.841,10.119-30.953s27.784-3.682,35.9,7.083c4.091,5.427,7.9,8.426,11.549,9.556,11.947-3.2,24.357-6.067,37.011-8.384,36.979-6.775,53.755-3.646,70.725-.52,16.024,2.953,32.223,5.905,65.776.52,61.132-9.819,85.4-38.567,123.944-43.676,1.369-6.384,2.06-8.734-.807-12.039-2.773-3.2-5.072-6.1-6.423-7.768a16.424,16.424,0,0,1,2.427-23.1,16.428,16.428,0,0,1,23.1,2.43,16.425,16.425,0,0,1-2.43,23.1c-1.825,1.48-1.328,5.081,3.029,16.866,45.946,3.9,52.034,52.1,52.034,52.1v332.128s-14.314-6.728-40.627-19.645c-2.809-.148-5.547-.26-6.812.794-11.607,12.454-21.972,20.823-36.888,20.823A47.17,47.17,0,0,1-10725.658-1304.05Zm-150.5-117.554c-.045-.243-.21-1.018-.227-1.278a6.225,6.225,0,0,1,5.3-6.425,6.147,6.147,0,0,1,7.082,4.219c.07.232.271,1.021.319,1.286a6.337,6.337,0,0,1-5.137,7.337,6.368,6.368,0,0,1-1.105.1A6.337,6.337,0,0,1-10876.153-1421.6Zm4.541-258.576c-.022-.117-.1-.487-.109-.61a2.968,2.968,0,0,1,2.525-3.062,2.928,2.928,0,0,1,3.375,2.01c.033.109.131.486.153.612a3.018,3.018,0,0,1-2.449,3.5,3.039,3.039,0,0,1-.529.047A3.015,3.015,0,0,1-10871.612-1680.18Zm9.241-22.229c-.157-.886-.761-3.694-.816-4.639-.683-11.428,7.613-21.276,19.226-23.322,11.54-2.036,22.316,4.334,25.7,15.314.263.844.989,3.7,1.16,4.664a22.985,22.985,0,0,1-18.645,26.627,23.16,23.16,0,0,1-4.017.353A22.991,22.991,0,0,1-10862.371-1702.409Zm136.6-30.671c-.042-.246-.209-1.018-.224-1.278a6.229,6.229,0,0,1,5.3-6.428,6.151,6.151,0,0,1,7.083,4.222c.072.232.273,1.018.321,1.283a6.335,6.335,0,0,1-5.14,7.337,6.378,6.378,0,0,1-1.109.1A6.333,6.333,0,0,1-10725.771-1733.08Zm32.436-92.845c-.084-.473-.408-1.974-.439-2.48a12.083,12.083,0,0,1,10.281-12.468,11.932,11.932,0,0,1,13.743,8.187c.14.45.528,1.98.618,2.494a12.289,12.289,0,0,1-9.969,14.238,12.378,12.378,0,0,1-2.146.188A12.291,12.291,0,0,1-10693.335-1825.925Zm-38.469-67.792c-.034-.19-.162-.788-.174-.993a4.829,4.829,0,0,1,4.107-4.983,4.767,4.767,0,0,1,5.489,3.274c.056.179.212.789.248,1a4.906,4.906,0,0,1-3.981,5.687,4.942,4.942,0,0,1-.861.076A4.908,4.908,0,0,1-10731.8-1893.717Z" transform="translate(11137.2 1899.772)" fill="#ffbe57"/>
</svg>
