<svg xmlns="http://www.w3.org/2000/svg" width="608.759" height="902.324" viewBox="0 0 608.759 902.324" preserveAspectRatio="xMinYMax meet">
  <path id="Union_6" data-name="Union 6" d="M-13052.016-1643.295c-.154-.089-.66-.357-.812-.469a4.49,4.49,0,0,1-1.093-5.9,4.424,4.424,0,0,1,5.608-1.954c.162.066.69.32.858.419a4.561,4.561,0,0,1,1.67,6.232,4.562,4.562,0,0,1-3.956,2.281A4.548,4.548,0,0,1-13052.016-1643.295Zm.575-16.974c-.674-.39-2.869-1.548-3.525-2.037-7.952-5.9-9.864-16.871-4.768-25.7,5.067-8.774,15.281-12.372,24.438-8.513.7.3,3,1.4,3.733,1.825a19.878,19.878,0,0,1,7.275,27.154,19.873,19.873,0,0,1-17.233,9.942A19.778,19.778,0,0,1-13051.44-1660.268Zm226.178-61.352c-.37-.215-1.581-.852-1.944-1.122a10.78,10.78,0,0,1-2.628-14.174,10.644,10.644,0,0,1,13.475-4.7c.39.165,1.657.776,2.061,1.007a10.963,10.963,0,0,1,4.014,14.977,10.96,10.96,0,0,1-9.5,5.483A10.908,10.908,0,0,1-12825.263-1721.621Zm240.93-31.495c-.053-3.063-7.843-11.729-15.147-9.131-.855.3-1.567.586-2.165.853-6.94,9.181-16.3,15.1-28.763,16.137-54.93,4.594-97.189-8.782-136.182-17.582-2.085-.126-4.571-.152-5.741.305a3.54,3.54,0,0,0-2.528,2.429c-3.328,9.144-6.966,15.36-16.729,17.261s-19.628-6.549-21.526-16.314c-1.122-5.773-1.136-8.3-3.736-10.048a18.645,18.645,0,0,0-4.092-.724c-25.855.007-51.336,4.556-75.595,9.1-48.462,9.088-92.052,18.175-124.012-8.942-35.489-30.108,2.442-85.364-20.829-156.151-10.121-30.8-93.666-49.4-101.6-80.521-10.16-39.9,8.514-64.683,8.514-64.683l5.008-94.792s67.34-26.1,119.413,0c24.946,12.5,23.44,9.646,36.563,12.861s19.564,3.592,19.564,3.592a37.376,37.376,0,0,0,6.445-1.492c14.979-5.236,19.353-7.814,19.353-11.194a25.9,25.9,0,0,1,25.9-25.9,25.9,25.9,0,0,1,25.9,25.9,25.9,25.9,0,0,1-25.9,25.9c-3.387,0-9.22.063-15.891-.162-7.774-.264-6.183-.244-14.852,10.187l-.034-.009c-5.812,5.523-5.346,11.405-5.614,14.58.258,4.311,1.38,6.308,2.8,10.078,2.651,7.028,5.49,14.155,8.329,20.314,29.884,64.8,34.066,64.742,84.819,36.6,28.064-15.561,65.323,7.051,106.45,12.478,10.108,1.335,26.95,6.8,42.885,12.454l-.3-.4s16.977,6.381,23.658,8.7c5.354,1.855,17.2-3.671,19.238-4.522,17.766-10.269,32.075-15.386,50.433-5.209,7.309,4.052,12.418,10.775,15.277,18.558a3.96,3.96,0,0,1,1.8-.815,3.98,3.98,0,0,1,4.611,3.228c.026.152.132.64.142.8a3.916,3.916,0,0,1-3.33,4.04,4.181,4.181,0,0,1-1.253.033,45.464,45.464,0,0,1-4.59,29.692c-6.015,10.85-7.52,19.04-5.694,25.4a1.2,1.2,0,0,1-.372.535c4.1,21.677,18.462,104.9,3.159,155.223,3.546,7.116,8.8,10.269,14.088,10,5.492-.281,10.3-.313,13.088-.363a21.338,21.338,0,0,1,21.708,20.965,21.342,21.342,0,0,1-20.962,21.707q-.189,0-.378,0A21.344,21.344,0,0,1-12584.333-1753.116Zm39.3-17.386c-.043-.149-.168-.644-.2-.809a3.98,3.98,0,0,1,3.229-4.611,3.979,3.979,0,0,1,4.611,3.228c.026.155.132.64.143.805a3.914,3.914,0,0,1-3.331,4.037,4.249,4.249,0,0,1-.739.066A3.834,3.834,0,0,1-12545.034-1770.5Zm-594.959-86.123c-.3-.984-1.155-4.314-1.354-5.437a26.8,26.8,0,0,1,21.74-31.049,26.8,26.8,0,0,1,31.049,21.74c.182,1.033.889,4.3.954,5.41.793,13.323-8.88,24.807-22.42,27.194a28.636,28.636,0,0,1-4.973.439A25.79,25.79,0,0,1-13139.993-1856.625Zm378.635-214.427c-.143-.452-.532-1.98-.621-2.5a12.29,12.29,0,0,1,9.97-14.237,12.262,12.262,0,0,1,9.981,2.645,6.707,6.707,0,0,1,5.335-4.946,6.7,6.7,0,0,1,7.764,5.44c.046.258.225,1.076.241,1.354a6.593,6.593,0,0,1-5.608,6.8,6.894,6.894,0,0,1-3.258-.194c.1.529.2,1.081.218,1.353a12.084,12.084,0,0,1-10.279,12.468,13.131,13.131,0,0,1-2.282.2A11.823,11.823,0,0,1-12761.358-2071.052Zm-68.632-170.229c-.5-1.621-1.9-7.12-2.231-8.972a44.219,44.219,0,0,1,35.866-51.222,44.218,44.218,0,0,1,51.222,35.865c.3,1.707,1.465,7.1,1.571,8.923,1.313,21.981-14.644,40.929-36.985,44.867a47.259,47.259,0,0,1-8.2.724C-12807.69-2211.094-12824.288-2222.788-12829.99-2241.281Zm-79.082,9.672c-.072-.234-.273-1.02-.32-1.287a6.337,6.337,0,0,1,5.137-7.338,6.334,6.334,0,0,1,7.338,5.14c.043.244.208,1.017.225,1.277a6.226,6.226,0,0,1-5.3,6.427,6.77,6.77,0,0,1-1.175.1A6.093,6.093,0,0,1-12909.072-2231.609Zm-194.068-119.632c-.736-2.387-2.8-10.468-3.278-13.187a64.989,64.989,0,0,1,52.714-75.286,64.989,64.989,0,0,1,75.286,52.717c.442,2.509,2.151,10.438,2.311,13.115,1.928,32.307-21.522,60.154-54.361,65.944a69.394,69.394,0,0,1-12.051,1.064C-13070.359-2306.874-13094.76-2324.06-13103.141-2351.241Zm234.893-154.784c-.324-1.037-1.222-4.559-1.43-5.744a28.318,28.318,0,0,1,22.969-32.805,28.32,28.32,0,0,1,32.8,22.968c.191,1.1.938,4.552,1.007,5.717.839,14.075-9.381,26.21-23.687,28.732a30.285,30.285,0,0,1-5.25.464A27.247,27.247,0,0,1-12868.248-2506.025Zm-159.433,10.6c-.069-.231-.271-1.02-.319-1.284a6.334,6.334,0,0,1,5.14-7.338,6.33,6.33,0,0,1,7.334,5.136c.043.244.212,1.017.229,1.277a6.23,6.23,0,0,1-5.3,6.427,6.773,6.773,0,0,1-1.176.1A6.1,6.1,0,0,1-13027.681-2495.422Z" transform="translate(13146.002 2545.008)" fill="#ffbe57"/>
</svg>
