<svg xmlns="http://www.w3.org/2000/svg" width="608.758" height="861.458" viewBox="0 0 608.758 861.458">
  <path id="Union_7" data-name="Union 7" d="M-11062.018-1687.651c-.153-.09-.658-.356-.81-.468a4.486,4.486,0,0,1-1.092-5.9,4.426,4.426,0,0,1,5.608-1.953c.162.067.689.322.857.417a4.563,4.563,0,0,1,1.67,6.234,4.564,4.564,0,0,1-3.956,2.282A4.542,4.542,0,0,1-11062.018-1687.651Zm.577-16.972c-.675-.389-2.868-1.547-3.526-2.037-7.951-5.9-9.864-16.871-4.766-25.7,5.067-8.775,15.279-12.375,24.438-8.514.7.3,3,1.4,3.732,1.827a19.874,19.874,0,0,1,7.275,27.153,19.864,19.864,0,0,1-17.231,9.942A19.8,19.8,0,0,1-11061.44-1704.623Zm226.178-61.352c-.37-.213-1.583-.852-1.944-1.123a10.782,10.782,0,0,1-2.628-14.176,10.644,10.644,0,0,1,13.476-4.7c.389.165,1.658.773,2.062,1.009a10.962,10.962,0,0,1,4.012,14.974,10.958,10.958,0,0,1-9.5,5.483A10.911,10.911,0,0,1-10835.263-1765.974Zm240.933-31.5c-.054-3.062-7.845-11.73-15.151-9.13-.854.3-1.566.586-2.164.853-6.94,9.181-16.3,15.095-28.763,16.136-54.921,4.594-97.18-8.778-136.165-17.579-2.089-.127-4.583-.154-5.757.3a3.547,3.547,0,0,0-2.532,2.426c-3.323,9.144-6.962,15.364-16.729,17.26s-19.625-6.544-21.524-16.314c-1.121-5.771-1.135-8.293-3.737-10.046a18.691,18.691,0,0,0-4.1-.725c-25.849.01-51.326,4.557-75.58,9.1-48.462,9.091-92.052,18.179-124.015-8.943-35.49-30.109,2.443-85.361-20.827-156.149-10.122-30.792-93.668-49.395-101.6-80.523-10.162-39.9,8.511-64.68,8.511-64.68l5.009-94.794s67.339-26.1,119.412,0c24.948,12.5,23.443,9.646,36.563,12.862s19.566,3.592,19.566,3.592a37.383,37.383,0,0,0,6.443-1.494c14.979-5.236,19.351-7.815,19.351-11.192a25.9,25.9,0,0,1,25.9-25.9,25.9,25.9,0,0,1,25.9,25.9,25.9,25.9,0,0,1-25.9,25.9c-3.387,0-9.217.062-15.888-.165-7.777-.26-6.186-.244-14.854,10.189l-.035-.009c-5.812,5.526-5.344,11.406-5.61,14.58.255,4.309,1.375,6.306,2.8,10.077,2.65,7.029,5.488,14.156,8.329,20.317,29.884,64.792,34.064,64.742,84.817,36.6,28.066-15.563,65.327,7.049,106.452,12.478,10.11,1.335,26.95,6.8,42.888,12.454l-.307-.4s16.975,6.382,23.659,8.7c5.354,1.857,17.2-3.67,19.235-4.522,17.768-10.268,32.078-15.383,50.432-5.211,7.31,4.052,12.42,10.777,15.279,18.56a3.963,3.963,0,0,1,1.8-.815,3.977,3.977,0,0,1,4.611,3.227c.028.154.132.639.143.8a3.917,3.917,0,0,1-3.331,4.04,4.17,4.17,0,0,1-1.252.033,45.477,45.477,0,0,1-4.589,29.695c-6.016,10.848-7.522,19.039-5.7,25.4a1.2,1.2,0,0,1-.372.536c4.1,21.675,18.464,104.9,3.16,155.226,3.546,7.115,8.8,10.267,14.089,9.994,5.491-.28,10.3-.314,13.086-.361a21.338,21.338,0,0,1,21.71,20.961,21.343,21.343,0,0,1-20.965,21.709c-.126,0-.251,0-.377,0A21.339,21.339,0,0,1-10594.33-1797.47Zm39.3-17.387c-.045-.149-.171-.642-.2-.81a3.981,3.981,0,0,1,3.23-4.611,3.981,3.981,0,0,1,4.611,3.23c.028.154.132.639.143.8a3.912,3.912,0,0,1-3.331,4.037,4.261,4.261,0,0,1-.738.065A3.831,3.831,0,0,1-10555.032-1814.856ZM-11150-1900.979c-.3-.983-1.154-4.314-1.351-5.438a26.8,26.8,0,0,1,21.74-31.047,26.8,26.8,0,0,1,31.048,21.74c.182,1.034.888,4.306.952,5.407.8,13.324-8.876,24.808-22.418,27.2a28.636,28.636,0,0,1-4.972.439A25.8,25.8,0,0,1-11150-1900.979Zm378.636-214.427c-.14-.451-.529-1.981-.619-2.493a12.29,12.29,0,0,1,9.969-14.238,12.265,12.265,0,0,1,9.98,2.647,6.7,6.7,0,0,1,5.335-4.947,6.7,6.7,0,0,1,7.767,5.438c.045.258.221,1.076.238,1.353a6.594,6.594,0,0,1-5.609,6.8,6.887,6.887,0,0,1-3.256-.194c.1.529.2,1.081.219,1.351a12.086,12.086,0,0,1-10.281,12.47,13.17,13.17,0,0,1-2.277.2A11.828,11.828,0,0,1-10771.359-2115.407Zm-147.713-160.558c-.073-.232-.274-1.02-.319-1.286a6.334,6.334,0,0,1,5.138-7.337,6.335,6.335,0,0,1,7.335,5.138c.045.244.21,1.017.227,1.278a6.227,6.227,0,0,1-5.3,6.427,6.749,6.749,0,0,1-1.178.1A6.093,6.093,0,0,1-10919.072-2275.965Zm-118.607-263.811c-.07-.232-.271-1.02-.319-1.286a6.332,6.332,0,0,1,5.138-7.337,6.333,6.333,0,0,1,7.338,5.138c.042.244.21,1.017.224,1.278a6.226,6.226,0,0,1-5.3,6.427,6.762,6.762,0,0,1-1.175.1A6.094,6.094,0,0,1-11037.68-2539.776Z" transform="translate(11156.001 2548.496)" fill="#ffbe57"/>
</svg>
