<svg xmlns="http://www.w3.org/2000/svg" width="505.687" height="905.559" viewBox="0 0 505.687 905.559" preserveAspectRatio="xMaxYMid meet">
  <path id="Union_5" data-name="Union 5" d="M-14185.832-1326.761a75.6,75.6,0,0,1-22.316-12.857,75.18,75.18,0,0,1-16.791-19.726,75.074,75.074,0,0,1-9.267-25.189c-.146-.812-.4-2.119-.7-3.634v-.011c-.782-3.942-1.852-9.343-1.981-11.582a70.513,70.513,0,0,1,3.558-26.844,71.682,71.682,0,0,1,12.864-22.986,75.861,75.861,0,0,1,20.436-17.215,80.026,80.026,0,0,1,26.261-9.524,81,81,0,0,1,14-1.235,75.827,75.827,0,0,1,23.265,3.612,72.681,72.681,0,0,1,20.4,10.31,71.487,71.487,0,0,1,16.161,16.23,73.756,73.756,0,0,1,10.557,21.363c.852,2.76,3.253,12.18,3.808,15.31a75.067,75.067,0,0,1-.739,29.956,75.789,75.789,0,0,1-4.626,13.832,76.2,76.2,0,0,1-7.137,12.6,75.732,75.732,0,0,1-9.4,11.013,75.4,75.4,0,0,1-11.415,9.079,75.063,75.063,0,0,1-27.9,10.941,76.274,76.274,0,0,1-13.19,1.159A74.8,74.8,0,0,1-14185.832-1326.761Zm-7.927-54.721,14.64,19.526-35.427-53.011h-2.568v33.485h2.054l.095-30.949Zm56.729-31.7h11.723v31.7h2.055v-31.7h11.77v-1.786h-25.547Zm-14.669,16.038,11.3,15.661h2.478l-12.426-17.212,24.112-34.974-14.676,18.7-10.792,14.726-10.557-14.726h-2.38l11.676,16.273-12.52,17.212h2.431l11.35-15.661v0Zm-37.368,15.661h22.656v-1.782h-20.6v-14.726h19.15v-1.782h-19.15v-13.408h20.363v-1.786h-22.421Zm88.043-2.228c1.718,0,2.782-.862,2.782-2.25,0-1.094-.6-1.685-2.09-2.032l-.8-.2c-.935-.221-1.315-.518-1.315-1.032,0-.652.576-1.072,1.471-1.072a1.386,1.386,0,0,1,1.529,1.08h1.087a2.35,2.35,0,0,0-2.6-2.072c-1.572,0-2.627.862-2.627,2.141,0,1.062.605,1.7,1.9,2l.927.228c.964.228,1.373.558,1.373,1.1,0,.641-.655,1.1-1.558,1.1-.967,0-1.63-.427-1.728-1.12h-1.112C-14103.7-1384.544-14102.614-1383.71-14101.024-1383.71Zm-6.448,0a2.077,2.077,0,0,0,2.231-2.29v-5.112h-1.119V-1386c0,.8-.4,1.235-1.119,1.235a1.008,1.008,0,0,1-1.091-1h-1.1A2.014,2.014,0,0,0-14107.473-1383.71Zm-4.952-.837a.724.724,0,0,0,.731.746.728.728,0,0,0,.739-.746.726.726,0,0,0-.739-.746A.722.722,0,0,0-14112.425-1384.547Zm-192.617-189.936a54.4,54.4,0,0,1-16.062-9.256,54.158,54.158,0,0,1-12.086-14.2,54.165,54.165,0,0,1-6.669-18.132c-.1-.565-.283-1.485-.493-2.536-.564-2.869-1.344-6.8-1.441-8.426a50.712,50.712,0,0,1,2.562-19.324,51.717,51.717,0,0,1,9.259-16.545,54.568,54.568,0,0,1,14.712-12.39,57.477,57.477,0,0,1,18.9-6.858,58.1,58.1,0,0,1,10.07-.888,54.64,54.64,0,0,1,16.748,2.6,52.294,52.294,0,0,1,14.687,7.423,51.445,51.445,0,0,1,11.633,11.683,53.109,53.109,0,0,1,7.6,15.375c.615,1.989,2.344,8.774,2.742,11.024a54.02,54.02,0,0,1-.532,21.563,54.682,54.682,0,0,1-3.329,9.955,54.666,54.666,0,0,1-5.138,9.068,54.734,54.734,0,0,1-6.764,7.93,54.584,54.584,0,0,1-8.216,6.532,53.961,53.961,0,0,1-20.085,7.876,54.718,54.718,0,0,1-9.5.833A53.868,53.868,0,0,1-14305.042-1574.483Zm-8.984-69.4a18.772,18.772,0,0,0-6.727,10.013l-1.29,6.336c0,1.152,0,2.318-.019,3.561.044.214.091.431.138.641l.008.04c.1.438.206.935.268,1.427.688,5.17,2.282,8.894,5.021,11.716a16.1,16.1,0,0,0,5.9,3.865,20.175,20.175,0,0,0,7.224,1.33,18.523,18.523,0,0,0,9.194-2.337,14.636,14.636,0,0,0,5.348-5.123,20.347,20.347,0,0,0,2.562-6.963,5.063,5.063,0,0,0-1.449-.264c-1.065,0-1.706.616-2.142,2.05a14.732,14.732,0,0,1-2.836,5.4,11.322,11.322,0,0,1-5.047,3.38,19.144,19.144,0,0,1-6.079,1.047,14.586,14.586,0,0,1-5.644-1.09,13.43,13.43,0,0,1-4.521-3.1c-3.141-3.264-4.757-8.126-4.547-13.694h32.652a27.815,27.815,0,0,0-1.192-10.111,17,17,0,0,0-5.753-8.115,16.8,16.8,0,0,0-10.43-3.641A17.725,17.725,0,0,0-14314.026-1643.887Zm30.754-2.395,14.665,19.1-15.748,21.142a6.236,6.236,0,0,0,1.648.243c1.514,0,2.666-.721,3.851-2.409l12.3-16.636,1.521,2.018,10.531,14.571c1.131,1.7,2.355,2.449,3.979,2.449a7.472,7.472,0,0,0,1.822-.254l-14.709-19.541c-.905-1.188-.92-1.956-.051-3.04l7.7-10.028,5.685-7.535a6.118,6.118,0,0,0-1.735-.279c-1.453,0-2.6.71-3.721,2.3l-11,14.672-10.927-14.752a4.4,4.4,0,0,0-3.931-2.228A10,10,0,0,0-14283.272-1646.282Zm-35.336,17.871a20.041,20.041,0,0,1,1.329-6.583,15.624,15.624,0,0,1,3.21-5.094,14.071,14.071,0,0,1,4.771-3.289,15.551,15.551,0,0,1,6.017-1.163h.138a13.249,13.249,0,0,1,5.539,1.221,13.256,13.256,0,0,1,4.409,3.34,15.857,15.857,0,0,1,2.945,5.09,20.391,20.391,0,0,1,1.148,6.478Zm299.236-3.59c-20.529-4.365-32.713-28.888-28.348-49.414,2.58-12.132,1.957-21.389-1.648-26.939a.1.1,0,0,0,0-.017c-39.211-36.611-92.893-89.82-124.905-107.473-27.188-14.994-63.383-13.4-99.863-11.8-27.2,1.188-54.565,2.38-78.476-3.308-5.876-1.4-11.165-2.69-15.94-3.9-1.332,3-1.481,5.662-.275,9.388,2.231,6.9,3.916,13.016,4.931,16.556a28.162,28.162,0,0,1-9.076,29.428,6.468,6.468,0,0,1,1.795,2.865c.072.246.286,1.08.337,1.362a6.71,6.71,0,0,1-5.438,7.767,6.705,6.705,0,0,1-7.767-5.441c-.03-.163-.11-.552-.171-.885a28.151,28.151,0,0,1-33.811-19.573,28.157,28.157,0,0,1,19.306-34.825c2.757-.791,4.376-4.063,5.445-13.632-18.2-6.063-22.084-10.807-29.957-20.041-11.835-13.879-7.313-28.8-3.988-37s4.42-12.824,19.483-21.363c7.3-4.135,26.106-13.531,51.737-23.618,1.274-2.092,4.778-4.55,4.816-6.357-1.38-13.107-.645-22.841,10.122-30.953s27.783-3.684,35.9,7.082c4.089,5.427,7.9,8.425,11.545,9.556,11.948-3.2,24.361-6.069,37.015-8.386,36.977-6.775,53.754-3.648,70.723-.522,16.026,2.956,32.224,5.909,65.777.522,61.132-9.817,85.4-38.566,123.943-43.674,1.368-6.385,2.062-8.734-.807-12.04-2.775-3.2-5.071-6.1-6.423-7.767a16.427,16.427,0,0,1,2.427-23.1,16.426,16.426,0,0,1,23.1,2.427,16.426,16.426,0,0,1-2.428,23.1c-1.827,1.481-1.332,5.082,3.028,16.869,45.945,3.9,52.034,52.1,52.034,52.1v332.128s-14.318-6.731-40.631-19.649c-2.807-.147-5.543-.259-6.809.792-11.607,12.457-21.973,20.826-36.888,20.826A47.168,47.168,0,0,1-14019.372-1632Zm-159.048-37.879a34.8,34.8,0,0,1-7.771-9.129,34.763,34.763,0,0,1-4.29-11.662c-.064-.37-.185-.96-.326-1.7-.361-1.822-.854-4.318-.92-5.358a32.642,32.642,0,0,1,1.648-12.426,33.247,33.247,0,0,1,5.956-10.64,36.17,36.17,0,0,1,21.616-12.379,37.339,37.339,0,0,1,6.478-.572,35.148,35.148,0,0,1,10.771,1.67,33.59,33.59,0,0,1,9.444,4.775,33.436,33.436,0,0,1,12.375,17.4c.392,1.268,1.5,5.623,1.758,7.086a34.707,34.707,0,0,1-.341,13.868,34.783,34.783,0,0,1-5.445,12.234,34.766,34.766,0,0,1-9.633,9.3,34.763,34.763,0,0,1-12.915,5.065,35.4,35.4,0,0,1-6.107.536A34.978,34.978,0,0,1-14178.42-1669.88Zm26.381-9.321a1.746,1.746,0,0,0,1.083.471,1.251,1.251,0,0,0,.765-.272,1.372,1.372,0,0,0,.478-1.67l-21.052-27.529Zm-17.831-21.07,13.085,20.262a1.21,1.21,0,0,0,.754.326.9.9,0,0,0,.536-.188.973.973,0,0,0,.337-1.167l-14.709-19.237Zm22.612,19.534a1.759,1.759,0,0,0,1.084.467,1.259,1.259,0,0,0,.768-.272,1.371,1.371,0,0,0,.481-1.666l-27.018-36.042h0Zm-19.986-10.8,5.927,9.205a.606.606,0,0,0,.377.159.428.428,0,0,0,.257-.087.423.423,0,0,0,.163-.547l-6.724-8.734Zm23.105,7.017a1.74,1.74,0,0,0,1.084.471,1.241,1.241,0,0,0,.764-.272,1.373,1.373,0,0,0,.479-1.67l-21.052-27.533Zm2.021-4.691a1.2,1.2,0,0,0,.758.33.873.873,0,0,0,.536-.188.979.979,0,0,0,.337-1.167l-14.712-19.237Zm.479-5.825a.6.6,0,0,0,.381.159.446.446,0,0,0,.257-.087.423.423,0,0,0,.163-.543l-6.724-8.734Zm-28.231-54.522c-.04-.243-.211-1.018-.225-1.279a6.228,6.228,0,0,1,5.3-6.427,6.152,6.152,0,0,1,7.086,4.22c.069.232.272,1.022.319,1.286a6.335,6.335,0,0,1-5.138,7.336,6.367,6.367,0,0,1-1.108.1A6.336,6.336,0,0,1-14169.87-1749.555Zm4.543-258.576c-.022-.12-.1-.485-.109-.612a2.966,2.966,0,0,1,2.525-3.061,2.93,2.93,0,0,1,3.376,2.011c.033.112.131.485.152.612a3.018,3.018,0,0,1-2.449,3.5,3.031,3.031,0,0,1-.528.047A3.015,3.015,0,0,1-14165.327-2008.131Zm9.241-22.229c-.156-.888-.761-3.7-.818-4.641-.682-11.426,7.614-21.276,19.229-23.323,11.539-2.032,22.316,4.336,25.7,15.317.261.844.988,3.7,1.159,4.662a22.986,22.986,0,0,1-18.646,26.627,23.157,23.157,0,0,1-4.021.354A22.989,22.989,0,0,1-14156.086-2030.36Zm136.6-30.67c-.043-.246-.21-1.018-.225-1.279a6.227,6.227,0,0,1,5.3-6.427,6.145,6.145,0,0,1,7.082,4.22c.073.232.272,1.018.319,1.282a6.335,6.335,0,0,1-5.137,7.34,6.38,6.38,0,0,1-1.1.1A6.339,6.339,0,0,1-14019.484-2061.03Zm32.435-92.847c-.083-.475-.409-1.974-.438-2.478a12.08,12.08,0,0,1,10.281-12.469,11.926,11.926,0,0,1,13.741,8.187c.142.449.529,1.978.619,2.492a12.285,12.285,0,0,1-9.97,14.237,12.349,12.349,0,0,1-2.146.188A12.293,12.293,0,0,1-13987.05-2153.876Zm-38.47-67.792c-.032-.188-.163-.79-.174-.989a4.833,4.833,0,0,1,4.108-4.985,4.771,4.771,0,0,1,5.492,3.271c.054.181.21.793.246,1a4.911,4.911,0,0,1-3.985,5.691,4.932,4.932,0,0,1-.857.075A4.914,4.914,0,0,1-14025.52-2221.668Z" transform="translate(14430.914 2227.723)" fill="#ffbe57"/>
</svg>
