<svg xmlns="http://www.w3.org/2000/svg" width="627.788" height="655.095" viewBox="0 0 627.788 655.095" preserveAspectRatio="xMinYMin meet">
  <path id="Union_4" data-name="Union 4" d="M-8183.056,636.031a88.7,88.7,0,0,1-15.4-1.353,88.112,88.112,0,0,1-71.474-102.073c.651-3.69,3.446-14.648,4.442-17.88,12.984-42.092,54.3-66.512,98.534-58.712,44.521,7.851,76.319,45.605,73.7,89.41-.216,3.627-2.534,14.38-3.135,17.782a88.136,88.136,0,0,1-86.666,72.826ZM-7855.7,502.745a6.335,6.335,0,0,1-5.14-7.338c.048-.265.25-1.053.321-1.286a6.148,6.148,0,0,1,7.082-4.22,6.231,6.231,0,0,1,5.3,6.428c-.017.261-.183,1.034-.227,1.278a6.335,6.335,0,0,1-6.229,5.234A6.415,6.415,0,0,1-7855.7,502.745Zm-32.342-11.963a35.157,35.157,0,0,1-6.106-.536,34.93,34.93,0,0,1-28.334-40.466c.258-1.465,1.366-5.808,1.761-7.09,5.146-16.687,21.526-26.368,39.064-23.277,17.649,3.112,30.255,18.082,29.219,35.448-.086,1.437-1,5.7-1.244,7.05a34.938,34.938,0,0,1-34.354,28.87Zm-205.293-117.993a6.335,6.335,0,0,1-5.14-7.338c.048-.265.248-1.053.319-1.286a6.152,6.152,0,0,1,7.084-4.22,6.229,6.229,0,0,1,5.3,6.428c-.015.261-.181,1.034-.225,1.278a6.337,6.337,0,0,1-6.23,5.234A6.387,6.387,0,0,1-8093.336,372.789Zm-36.633-19.152a12.29,12.29,0,0,1-9.969-14.237c.092-.515.481-2.042.62-2.494a12.039,12.039,0,0,1,1.72-3.479,42.519,42.519,0,0,1-28.4-40.105c0-4.768-4.947-8.788-21.911-15.321-6.939,1.236-10.316,8.414-13.883,12.808-15.409,18.971-26.855,36.28-51.79,48.776-17.361,8.7-36.412,11.6-54.105,11.6-35.381,0-65.312-11.6-65.312-11.6V-19.051c575.938,0,625.752-.013,625.752-.013s1.583.011,2.036,0c-4.806,4.869-13.184,15.607-28.128,38.089-9.359,14.081-19.627,26.027-32.4,36.139a1.206,1.206,0,0,1,.078.681c-4.682,4.678-9.977,13.743-9.977,26.145,0,20.988-14.371,41.273-35.357,41.273s-25.117-9.679-35.681-27.271c-1.791-3.12-5.825-4.228-9.788-4.873-23.787,3.474-50.193,3.562-76.451,4.442a3.837,3.837,0,0,0-1.006,2.188c-.765,5.125-9.109,12.8-19.881,12.8a17.527,17.527,0,0,1-16.905-12.669c-19.793,2.043-38.69,5.785-55.39,13.19-53.731,23.823-61.527,30.3-91.411,95.088-2.841,6.161-5.678,13.289-8.33,20.316-1.423,3.772-2.545,5.768-2.8,10.078.271,3.2,2.2,5.821,8.189,11.391a1.121,1.121,0,0,1,.727,1.156,19.154,19.154,0,0,0,10.15,2c10.946-.37,20.518-.269,26.075-.269a42.5,42.5,0,0,1,42.5,42.5,42.511,42.511,0,0,1-35.534,41.932,11.5,11.5,0,0,1,1.238,5.935c-.03.506-.353,2-.437,2.48a12.289,12.289,0,0,1-12.087,10.158A12.491,12.491,0,0,1-8129.969,353.638Zm191.653-69.294a54.316,54.316,0,0,1-44.059-62.923c.4-2.276,2.125-9.029,2.738-11.024,8-25.947,33.472-41,60.739-36.191,25.807,4.552,44.679,25.4,45.5,50.323a12.7,12.7,0,0,1,5.056-.109,12.08,12.08,0,0,1,10.28,12.469c-.029.5-.353,2-.437,2.48a12.289,12.289,0,0,1-14.237,9.969,12.264,12.264,0,0,1-4.474-1.738,54.357,54.357,0,0,1-51.613,37.578A54.773,54.773,0,0,1-7938.316,284.344Zm-70.782-153.76a6.7,6.7,0,0,1-5.438-7.767c.048-.279.263-1.114.338-1.36a6.5,6.5,0,0,1,7.5-4.467,6.591,6.591,0,0,1,5.608,6.8c-.017.277-.193,1.095-.24,1.353a6.7,6.7,0,0,1-6.594,5.541A6.725,6.725,0,0,1-8009.1,130.584Z" transform="translate(8373.001 19.063)" fill="#ffbe57"/>
</svg>
